<?xml version="1.0" encoding="UTF-8" standalone="no"?>
<!-- Created with Inkscape (http://www.inkscape.org/) -->

<svg
   version="1.1"
   id="svg1"
   width="160"
   height="160"
   viewBox="0 0 160 160"
   sodipodi:docname="imosa.svg"
   inkscape:version="1.4.3 (0d15f75, 2025-12-25)"
   xmlns:inkscape="http://www.inkscape.org/namespaces/inkscape"
   xmlns:sodipodi="http://sodipodi.sourceforge.net/DTD/sodipodi-0.dtd"
   xmlns="http://www.w3.org/2000/svg"
   xmlns:svg="http://www.w3.org/2000/svg">
  <defs
     id="defs1" />
  <sodipodi:namedview
     id="namedview1"
     pagecolor="#ffffff"
     bordercolor="#000000"
     borderopacity="0.25"
     inkscape:showpageshadow="2"
     inkscape:pageopacity="0.0"
     inkscape:pagecheckerboard="0"
     inkscape:deskcolor="#d1d1d1"
     inkscape:zoom="4.66875"
     inkscape:cx="88.032129"
     inkscape:cy="80"
     inkscape:window-width="1920"
     inkscape:window-height="986"
     inkscape:window-x="-11"
     inkscape:window-y="-11"
     inkscape:window-maximized="1"
     inkscape:current-layer="g1" />
  <g
     inkscape:groupmode="layer"
     inkscape:label="Image"
     id="g1">
    <path
       style="fill:#326698"
       d="m 65.71419,159.01603 c -9.146997,-1.79401 -19.116582,-5.50735 -26.070677,-9.71047 -6.214234,-3.75594 -16.929323,-12.48535 -16.929323,-13.79205 0,-1.93416 60.480775,-57.438242 72.884859,-66.887488 l 2.884858,-2.197642 h 3.024433 3.02442 l 13.59072,7.387988 c 7.47489,4.063394 16.96571,9.063013 21.09071,11.110263 4.125,2.04725 10.0875,5.28024 13.25,7.18442 l 5.75,3.46214 v 1.85511 c 0,1.02032 -1.27202,5.449699 -2.82671,9.843079 l -2.82672,7.98796 -3.42328,5.66364 c -7.20131,11.91419 -17.07357,21.66661 -29.24051,28.88557 l -6.18278,3.6684 -9.40185,3.02053 -9.401845,3.02052 -11.098152,0.43547 -11.098153,0.43548 z m -46.8125,-27.23348 c -0.378125,-0.37813 -0.6875,-1.01104 -0.6875,-1.40646 0,-0.61571 16.246178,-14.4929 40.89072,-34.928109 10.567848,-8.76285 4.958023,-2.94818 -12.884555,13.355019 -9.078391,8.29516 -18.453202,16.89184 -20.832914,19.10374 -4.80113,4.46257 -5.488327,4.87323 -6.485751,3.87581 z m -4.057683,-5.14412 -0.488217,-0.78995 10.1792,-8.03789 c 21.469621,-16.95324 29.368921,-22.034849 14.958561,-9.62283 -10.767431,9.27427 -23.013492,19.24062 -23.641733,19.24062 -0.285777,0 -0.739292,-0.35548 -1.007811,-0.78995 z M 12.21419,122.5751 c 0,-0.46931 3.15,-2.9479 7,-5.50797 3.85,-2.56008 7,-4.46485 7,-4.23282 0,0.58955 -12.646551,10.59407 -13.391793,10.59407 -0.334514,0 -0.608207,-0.38398 -0.608207,-0.85328 z m -3.8491025,-6.86691 c -1.056089,-2.0789 -3.16332,-7.60481 -4.682737,-12.27981 l -2.76257497,-8.499999 -0.07885,-13.5 -0.07885,-13.500001 1.64384697,-6 c 0.904115,-3.3 2.605976,-8.568267 3.781912,-11.707261 l 2.138067,-5.707261 4.7788165,-7.292739 4.778817,-7.292739 6.320737,-6.275824 6.320736,-6.275824 7.492591,-4.669927 7.49259,-4.6699263 7.97549,-2.8223 7.975489,-2.822301 9.376508,-1.184277 9.376509,-1.18427697 9.409283,1.18841597 9.409283,1.188417 8.627889,3.121934 8.62789,3.121934 7.22748,4.7181493 7.22747,4.718148 5.88147,5.923829 5.88146,5.923829 4.79803,7.292739 4.79803,7.292739 2.02659,5.416529 c 1.11462,2.97909 2.28565,6.447358 2.6023,7.707261 l 0.57572,2.290732 -6.79645,0.1872 c -3.73804,0.10296 -8.14644,0.248241 -9.79644,0.322846 -1.65,0.0746 -4.49139,-0.17745 -6.3142,-0.560123 l -3.31421,-0.695768 -4.01213,1.809218 -4.01213,1.809219 -3.51791,-1.894523 -3.51792,-1.894522 -4.20407,1.511777 -4.20408,1.511778 -3.16664,-1.292122 -3.16663,-1.292121 -2.653152,1.008723 -2.653144,1.008723 -6.631894,6.377258 -6.631895,6.377258 -5,2.755645 c -2.75,1.515605 -7.475,4.665805 -10.5,7.000445 -3.025,2.33464 -7.813781,5.39865 -10.641736,6.80893 -6.912265,3.44707 -26.652278,15.410669 -36.117416,21.889259 -4.219331,2.88799 -8.233624,5.60181 -8.92065,6.03071 l -1.249138,0.7798 z M 156.66419,90.534141 c -0.5225,-0.49184 -8.82265,-5.18917 -18.44477,-10.43852 l -17.49478,-9.544275 -3.00522,-2.613896 -3.00523,-2.613895 3.47837,0.573087 c 3.41962,0.563406 16.04629,5.566588 33.24589,13.173329 l 8.72426,3.85841 0.0121,2 c 0.0168,2.78267 -1.05678,6.5 -1.87724,6.5 -0.37585,0 -1.11087,-0.40241 -1.63337,-0.89424 z m -10.063,-17.553286 c -7.21215,-3.465059 -13.4262,-6.80689 -13.80901,-7.426291 l -0.69602,-1.126184 h 1.6016 c 0.88088,0 7.20744,1.823776 14.05901,4.052835 l 12.45742,4.052834 v 3.447166 c 0,1.895941 -0.1125,3.413996 -0.25,3.373456 -0.1375,-0.0405 -6.15085,-2.908757 -13.363,-6.373816 z m 7.363,-6.620561 c -2.0625,-1.088831 -3.75,-2.202516 -3.75,-2.474856 0,-0.455385 2.91882,0.02905 7.25,1.203275 l 1.75,0.474442 v 1.432613 c 0,1.8491 -0.70537,1.76372 -5.25,-0.635474 z"
       id="path876" />
  </g>
</svg>
